<?xml version="1.0" standalone="no"?>
<!DOCTYPE svg PUBLIC "-//W3C//DTD SVG 20010904//EN"
        "http://www.w3.org/TR/2001/REC-SVG-20010904/DTD/svg10.dtd">
<svg version="1.0" xmlns="http://www.w3.org/2000/svg"
     width="476.000000pt" height="525.000000pt" viewBox="0 0 476.000000 525.000000"
     preserveAspectRatio="xMidYMid meet">
    <metadata>
        Created by potrace 1.16, written by Peter Selinger 2001-2019
    </metadata>
    <g transform="translate(0.000000,525.000000) scale(0.100000,-0.100000)"
       fill="#ffffff" stroke="none">
        <path d="M1775 4784 c-99 -23 -240 -80 -273 -111 -7 -7 -17 -13 -21 -13 -5 0
-19 -10 -33 -22 -43 -39 -63 -53 -73 -55 -5 -1 -17 -18 -26 -40 l-16 -38 -8
50 c-9 59 -21 85 -38 85 -9 0 -14 -17 -16 -47 -1 -26 -11 -68 -22 -92 -27 -62
-24 -77 19 -105 39 -25 122 -106 108 -106 -4 0 0 -7 8 -16 9 -8 16 -23 16 -32
0 -21 22 -82 31 -82 3 0 11 15 16 33 5 17 15 31 21 30 6 -2 9 4 6 12 -9 23 65
121 82 107 4 -4 4 -2 1 5 -10 16 55 67 128 102 135 65 249 86 424 78 303 -13
592 -130 783 -318 26 -25 45 -49 41 -52 -3 -4 0 -7 8 -7 12 0 46 -39 41 -47
-1 -2 10 -15 24 -30 31 -33 96 -168 120 -248 14 -46 18 -92 18 -200 -1 -160
-6 -203 -34 -288 -11 -33 -20 -66 -20 -74 0 -7 -4 -13 -8 -13 -4 0 -8 -8 -9
-19 -3 -32 -43 -109 -76 -143 -39 -41 -134 -101 -148 -93 -5 4 -9 1 -9 -5 0
-6 -30 -25 -67 -42 -38 -16 -98 -46 -135 -65 -38 -19 -68 -30 -68 -26 0 4 -4
3 -8 -2 -12 -17 -60 -45 -77 -45 -8 0 -15 -4 -15 -10 0 -5 -8 -10 -18 -10 -11
0 -27 -9 -37 -20 -10 -11 -22 -20 -27 -20 -4 0 -40 -24 -79 -52 -39 -29 -75
-52 -81 -50 -5 1 -7 -2 -3 -8 3 -5 2 -10 -2 -10 -13 0 -127 -117 -185 -189
-28 -35 -45 -60 -37 -56 8 5 2 -5 -13 -23 -15 -17 -29 -41 -33 -52 -3 -11 -11
-20 -16 -20 -5 0 -9 -6 -9 -14 0 -7 -17 -51 -39 -97 -33 -72 -52 -125 -55
-151 -1 -3 -4 -10 -9 -14 -4 -4 -7 -18 -7 -30 0 -13 -4 -25 -9 -29 -6 -3 -10
-13 -10 -23 0 -9 -4 -46 -10 -82 -13 -78 -12 -337 1 -364 7 -13 7 -16 -1 -12
-6 4 -11 0 -11 -9 0 -9 4 -14 9 -11 8 6 38 -81 33 -97 -1 -5 2 -6 8 -2 5 3 10
-1 10 -10 0 -9 7 -27 16 -40 9 -13 17 -32 19 -42 1 -10 8 -17 13 -16 7 2 9 -4
5 -14 -4 -10 -2 -14 4 -10 6 4 13 -2 16 -13 3 -11 12 -20 21 -20 9 0 16 -7 16
-16 0 -8 4 -13 8 -10 5 3 19 -5 33 -17 14 -12 18 -17 9 -12 -13 9 -13 8 -1 -8
8 -9 16 -15 19 -12 3 3 11 0 19 -6 7 -6 13 -8 13 -5 0 4 9 2 20 -4 11 -6 18
-15 15 -20 -3 -4 5 -6 17 -3 18 3 20 2 8 -6 -31 -20 -194 -43 -259 -37 -36 3
-67 9 -70 14 -3 5 -22 11 -42 15 -34 5 -36 4 -31 -16 8 -30 29 -50 43 -41 8 4
9 3 5 -4 -4 -6 5 -17 21 -26 15 -8 52 -35 81 -60 70 -60 165 -113 260 -144 62
-20 98 -25 182 -25 142 -1 257 35 379 117 29 20 55 36 57 36 3 0 31 24 94 83
36 34 87 94 93 110 4 10 11 16 16 12 5 -3 13 5 17 17 3 12 26 55 50 95 24 40
55 110 69 156 46 143 32 333 -35 482 -28 63 -38 77 -97 145 -72 82 -241 123
-335 81 -27 -11 -48 -16 -48 -12 0 5 -16 1 -35 -7 -19 -9 -35 -20 -35 -24 0
-4 -7 -8 -15 -8 -8 0 -14 -6 -13 -12 2 -7 -12 -17 -29 -22 -18 -6 -36 -19 -39
-29 -4 -11 -12 -16 -21 -13 -12 5 -14 1 -10 -14 3 -14 -1 -24 -14 -31 -11 -5
-17 -14 -14 -19 3 -5 -3 -15 -14 -21 -10 -7 -17 -18 -14 -25 2 -7 -1 -23 -8
-36 -7 -13 -14 -25 -14 -28 0 -3 -6 -14 -12 -25 -13 -24 -19 -150 -8 -180 4
-11 11 -32 17 -47 6 -15 10 -30 9 -33 -1 -3 13 -20 29 -39 58 -63 148 -70 222
-17 52 37 65 69 59 144 -2 24 -18 21 -24 -4 -4 -13 -10 -18 -18 -13 -8 4 -10
3 -5 -5 10 -16 -12 -41 -35 -41 -56 0 -81 111 -38 171 24 34 77 63 131 73 48
9 106 -20 145 -71 24 -31 28 -46 28 -102 0 -41 -6 -80 -16 -101 -10 -19 -23
-50 -30 -67 -8 -18 -17 -33 -21 -33 -5 0 -8 -6 -8 -13 0 -12 -104 -125 -144
-155 -68 -53 -198 -75 -289 -48 -58 17 -149 82 -171 121 -6 11 -14 22 -17 25
-13 11 -32 56 -45 105 -29 107 -10 353 33 438 8 16 16 36 18 45 4 25 73 140
114 192 43 55 174 187 219 220 18 14 45 35 60 48 15 12 33 20 40 17 7 -3 10
-1 7 5 -3 5 4 14 15 20 11 6 20 15 20 20 0 10 -98 -16 -116 -31 -6 -5 -16 -4
-24 4 -7 6 -10 7 -7 1 8 -14 -50 -47 -69 -40 -8 3 -14 0 -14 -8 0 -14 -21 -26
-47 -26 -25 0 -12 44 15 48 12 2 20 8 17 13 -4 5 1 9 10 9 10 0 13 5 9 12 -5
8 -2 9 9 5 11 -4 17 -1 17 8 0 8 5 15 11 15 6 0 27 12 47 28 20 15 33 21 28
15 -4 -7 -2 -13 3 -13 6 0 11 7 11 15 0 13 117 75 364 189 274 128 412 257
434 407 5 39 12 55 25 57 15 3 17 -6 17 -90 -1 -51 -5 -112 -9 -136 -7 -36 -6
-41 6 -30 23 18 50 78 87 190 48 145 61 231 59 393 -1 117 -5 154 -26 227 -14
48 -22 89 -19 92 3 3 0 6 -7 6 -7 0 -11 6 -8 14 3 7 2 18 -1 23 -11 14 41 -41
64 -69 12 -14 26 -34 32 -44 11 -18 11 -18 12 3 0 26 -14 61 -83 203 -75 152
-188 298 -314 401 -107 89 -229 169 -257 169 -9 0 -16 6 -16 14 0 17 -22 26
-60 26 -38 0 -61 10 -53 23 4 6 0 8 -10 4 -10 -3 -17 -2 -17 3 0 5 -15 11 -32
13 -18 2 8 5 58 5 50 1 94 5 98 9 7 7 -100 63 -124 64 -27 1 -124 36 -115 41
6 3 4 3 -3 2 -20 -5 -112 18 -112 29 0 5 -7 6 -16 3 -8 -3 -12 -2 -9 4 3 5
-16 9 -47 9 -29 -1 -116 -1 -193 -1 -188 0 -214 -1 -208 -12 3 -5 -6 -7 -21
-4 -17 3 -33 0 -42 -10 -8 -8 -32 -15 -52 -16 -28 -1 -39 -6 -47 -24 -7 -15
-16 -21 -28 -18 -12 3 -17 0 -14 -9 4 -9 -1 -11 -14 -8 -10 3 -19 8 -19 12 0
15 72 111 79 106 5 -2 11 4 14 15 7 28 0 29 -68 14z"/>
        <path d="M506 4492 c-12 -38 10 -77 141 -247 58 -76 69 -96 58 -105 -11 -9
-22 -1 -51 39 -25 34 -47 52 -67 57 -19 4 -25 9 -17 14 13 8 -76 21 -95 13
-17 -6 -6 -50 24 -98 32 -51 45 -65 101 -118 24 -23 57 -54 72 -69 15 -14 28
-24 28 -21 0 2 14 -7 31 -21 17 -14 35 -26 40 -26 5 0 18 18 30 41 l20 41 -23
26 c-13 14 -38 39 -55 55 -37 33 -41 52 -15 62 13 5 14 3 5 -6 -13 -13 -6 -42
8 -33 5 3 6 11 2 17 -3 7 3 3 16 -7 15 -14 18 -22 10 -27 -8 -4 -3 -8 12 -11
17 -2 23 -8 21 -22 -2 -11 1 -16 10 -14 32 11 56 -60 27 -78 -5 -3 -6 3 -2 13
3 10 3 15 -1 12 -4 -4 -9 -22 -11 -40 -3 -18 -8 -35 -12 -38 -5 -3 -9 -10 -10
-16 -2 -10 -59 -178 -70 -205 -24 -58 -25 -135 -3 -223 12 -48 19 -91 15 -97
-3 -5 -1 -10 4 -10 7 0 11 -28 11 -74 0 -64 -7 -101 -28 -156 -3 -8 -6 -17 -6
-20 -1 -5 -49 -87 -87 -149 -67 -108 -124 -214 -140 -256 -9 -27 -29 -81 -43
-119 -14 -38 -26 -73 -26 -78 0 -11 127 -71 197 -93 71 -22 128 -22 189 0 52
18 91 15 78 -6 -5 -8 -3 -9 6 -4 7 4 15 4 19 -1 11 -15 80 -44 106 -44 29 0
67 48 175 220 40 63 81 124 91 136 11 11 19 24 19 28 0 13 85 93 116 109 16 8
111 47 210 86 100 40 203 85 229 102 43 28 49 29 64 15 12 -12 13 -18 3 -28
-9 -9 -12 -9 -12 1 0 7 -5 9 -10 6 -6 -4 -8 -10 -5 -14 2 -5 -7 -13 -20 -19
-14 -7 -25 -18 -25 -26 0 -8 -5 -18 -12 -22 -7 -4 -8 -3 -4 4 4 7 2 12 -4 12
-7 0 -14 -9 -17 -19 -3 -11 -13 -21 -24 -24 -10 -3 -19 -12 -19 -21 0 -9 -8
-16 -20 -16 -11 0 -19 -3 -18 -8 2 -4 -17 -25 -42 -47 -24 -22 -52 -48 -62
-57 -10 -10 -22 -18 -26 -18 -5 0 -14 -10 -21 -23 -7 -13 -26 -31 -42 -41 -16
-9 -29 -22 -29 -28 0 -5 -14 -28 -32 -50 -40 -51 -68 -94 -93 -143 -11 -22
-22 -42 -25 -45 -3 -3 -6 -12 -7 -20 -1 -8 -11 -42 -23 -75 -12 -33 -26 -87
-31 -120 -13 -87 -14 -89 -23 -104 -7 -10 -5 -12 4 -6 9 5 10 2 6 -11 -3 -11
-6 -53 -7 -94 -1 -42 -7 -78 -13 -82 -8 -6 -7 -8 2 -8 6 0 12 -9 12 -21 0 -35
17 -12 45 61 15 39 31 68 35 65 5 -3 12 0 16 6 4 8 3 9 -4 5 -17 -10 -15 16 4
42 8 12 22 35 30 50 17 33 19 7 3 -35 -10 -25 -41 -164 -58 -253 -13 -73 -4
-361 13 -377 3 -3 6 -16 6 -27 0 -23 18 -76 49 -149 11 -26 21 -49 22 -52 9
-37 13 -45 19 -45 8 0 23 -39 21 -53 -1 -5 3 -6 9 -2 6 4 15 -7 21 -25 6 -17
14 -29 16 -26 3 3 14 -5 23 -17 28 -34 34 -14 21 62 -13 85 -14 112 -2 93 4
-8 12 -14 17 -14 5 0 15 -3 22 -6 11 -4 11 -6 0 -13 -10 -7 -8 -9 7 -10 11 -1
24 -1 29 0 15 3 96 -31 96 -40 0 -5 5 -9 11 -9 5 0 8 3 5 8 -2 4 26 5 62 1 37
-3 68 -5 70 -3 2 1 0 18 -4 39 -4 24 -11 35 -20 31 -24 -9 -120 143 -163 258
-103 278 -75 568 86 891 73 145 199 319 314 434 67 66 183 161 197 161 6 0 12
4 14 8 7 18 102 74 271 160 98 50 187 101 198 114 29 33 76 135 100 214 27 91
36 263 19 346 -25 120 -103 262 -185 336 -16 15 -39 37 -52 49 -12 12 -32 24
-43 28 -11 3 -20 11 -20 16 0 5 -7 9 -15 9 -8 0 -15 5 -15 10 0 6 -7 10 -16
10 -8 0 -22 6 -30 14 -7 8 -35 22 -61 32 -27 10 -51 22 -54 27 -4 5 -24 11
-45 14 -22 3 -43 9 -49 13 -38 31 -361 59 -440 39 -16 -4 -70 -18 -120 -30
-49 -12 -98 -26 -107 -31 -13 -6 -16 -5 -12 6 8 21 -11 27 -40 12 -29 -15 -78
-81 -82 -111 -1 -11 -3 -23 -3 -27 -1 -5 -7 -7 -13 -5 -8 1 -14 -10 -15 -28
-8 -106 -16 -146 -29 -141 -8 3 -14 1 -14 -5 0 -6 -5 -7 -11 -3 -17 10 -61
115 -55 131 3 8 2 11 -4 8 -5 -3 -18 15 -29 40 -11 25 -29 59 -40 74 -11 16
-17 32 -13 36 4 5 2 5 -4 2 -7 -4 -15 0 -18 9 -4 9 -9 14 -13 11 -3 -4 -11 0
-17 8 -6 9 -21 17 -34 20 -12 2 -26 6 -30 9 -4 2 -55 10 -112 16 -164 18 -244
37 -532 130 -22 7 -28 5 -32 -8z m1383 -279 l23 -6 -23 -13 c-13 -7 -35 -13
-48 -14 -15 0 -21 -5 -18 -13 3 -7 -4 -19 -15 -26 -16 -10 -18 -10 -13 0 5 8
4 10 -3 5 -7 -4 -12 -12 -12 -17 0 -23 -65 -69 -97 -69 -38 0 -37 -3 -18 43 8
20 15 50 15 66 0 27 4 31 38 36 20 4 44 8 52 10 28 5 95 5 119 -2z m401 -109
c206 -47 341 -221 327 -424 -5 -75 -49 -210 -68 -210 -5 0 -9 -7 -9 -15 0 -9
-9 -19 -19 -23 -20 -7 -21 -9 -21 -37 0 -8 -3 -14 -7 -13 -5 2 -19 -5 -33 -15
-13 -9 -19 -17 -12 -17 16 0 -77 -94 -96 -96 -8 -2 -15 -4 -15 -6 -14 -27 -27
-43 -36 -41 -6 2 -11 -1 -11 -6 0 -5 -10 -15 -23 -24 l-23 -15 8 77 c12 117
-7 275 -45 362 -9 20 -13 40 -9 44 4 5 1 5 -5 1 -8 -4 -13 -2 -13 7 0 7 -11
24 -25 37 -14 13 -25 30 -25 37 0 12 -3 12 -15 -1 -8 -8 -15 -19 -15 -25 0 -6
-5 -11 -10 -11 -14 0 -60 50 -60 65 0 15 -49 57 -59 51 -5 -3 -17 4 -27 15
-10 11 -24 17 -31 14 -9 -3 -11 0 -7 7 5 8 2 9 -9 5 -10 -3 -17 -2 -17 3 0 5
-7 7 -15 4 -8 -4 -15 -1 -15 5 0 6 -6 8 -14 5 -7 -3 -16 2 -20 12 -5 13 -9 14
-21 4 -15 -13 -39 -4 -30 11 4 5 -4 9 -17 9 -18 0 -20 -2 -8 -10 22 -14 -1
-11 -29 4 -22 12 -19 13 38 19 34 3 76 14 95 25 26 15 37 17 46 9 8 -9 10 -8
5 4 -4 11 10 31 47 63 113 101 202 124 348 90z m-941 -199 c23 -27 31 -45 30
-73 l0 -37 -19 41 c-16 37 -21 41 -51 39 -19 -2 -39 2 -46 7 -7 6 -14 5 -19
-3 -4 -8 -3 -9 4 -5 7 4 12 3 12 -2 0 -6 -6 -12 -14 -15 -8 -3 -20 -32 -26
-63 -10 -49 -10 -62 4 -91 9 -19 13 -39 10 -45 -4 -6 -2 -8 4 -4 6 3 17 -2 24
-11 7 -10 20 -20 28 -22 8 -2 31 -8 51 -14 30 -9 43 -7 82 12 36 18 51 33 71
74 14 28 26 59 26 69 0 17 3 17 43 -3 76 -39 115 -77 147 -145 18 -37 32 -83
33 -109 1 -25 5 -45 10 -45 4 0 7 -14 7 -31 0 -21 -4 -28 -12 -23 -10 6 -10 4
0 -7 7 -7 12 -39 12 -75 0 -52 3 -62 19 -67 18 -4 18 -8 6 -43 -7 -22 -18 -39
-24 -39 -6 0 -11 -4 -10 -9 0 -5 -11 -16 -25 -26 -15 -9 -23 -19 -20 -23 9 -9
-16 -38 -27 -31 -5 3 -9 -4 -9 -14 0 -22 -42 -36 -59 -19 -8 8 -15 7 -23 -2
-11 -10 -10 -11 5 -6 9 4 17 3 17 -3 0 -5 -11 -13 -24 -16 -13 -3 -31 -8 -38
-11 -9 -4 -15 0 -15 9 0 8 6 12 14 9 7 -3 13 0 13 6 0 15 51 60 67 61 7 0 12
3 11 8 -1 4 6 24 15 46 46 104 45 234 -3 376 -25 74 -61 150 -72 150 -4 0 -10
-11 -14 -24 -3 -15 -11 -23 -19 -20 -12 5 -32 -30 -27 -49 1 -4 -1 -6 -5 -6
-21 3 -33 -2 -33 -15 0 -16 -30 -26 -78 -26 -37 0 -64 12 -102 44 -14 11 -22
17 -18 13 3 -5 2 -21 -2 -37 -7 -26 -5 -31 27 -52 95 -61 135 -70 213 -48 43
12 54 3 55 -50 0 -22 3 -40 6 -40 8 0 11 -107 4 -131 -4 -10 -11 -17 -16 -13
-5 3 -9 2 -8 -3 4 -21 -3 -32 -22 -38 -13 -4 -18 -12 -15 -22 5 -11 2 -13 -11
-8 -10 3 -31 9 -47 12 -20 4 -32 16 -43 42 -17 40 -8 86 17 86 22 0 24 -42 4
-62 -21 -21 -7 -28 40 -19 86 16 66 161 -25 180 -46 9 -104 -10 -132 -44 -14
-16 -26 -27 -28 -25 -2 2 -5 -9 -6 -23 0 -15 -5 -28 -10 -29 -9 -3 -1 -52 25
-155 l10 -36 -62 -7 c-57 -6 -134 -23 -181 -40 -14 -5 -16 -4 -7 3 11 7 11 10
-2 15 -9 4 -15 3 -15 -1 1 -4 1 -14 0 -22 -1 -13 -2 -13 -11 0 -8 13 -10 12
-10 -2 0 -10 -6 -18 -13 -18 -7 0 -33 -13 -58 -28 -24 -16 -49 -27 -55 -25 -6
2 -14 -5 -17 -17 -3 -12 -13 -20 -26 -20 -14 0 -21 -6 -21 -20 0 -13 -7 -20
-20 -20 -12 0 -20 -7 -20 -16 0 -9 -7 -22 -15 -28 -9 -6 -18 -34 -21 -61 -4
-28 -10 -55 -15 -61 -13 -16 15 -79 43 -98 60 -42 148 9 148 87 0 12 -11 39
-24 58 -23 33 -24 38 -10 58 8 11 22 21 30 21 8 0 14 4 14 10 0 25 154 80 298
105 48 8 112 22 142 31 30 8 62 16 70 17 8 1 18 6 21 11 4 5 15 6 25 2 15 -6
9 -12 -31 -30 -86 -38 -150 -71 -153 -78 -2 -5 -8 -8 -13 -8 -6 0 -7 5 -4 10
3 6 -2 10 -11 10 -10 0 -14 -3 -11 -7 4 -3 1 -13 -6 -21 -10 -13 -9 -15 3 -8
8 4 4 -2 -9 -13 -12 -12 -27 -18 -32 -15 -5 3 -9 -2 -9 -11 0 -8 -12 -20 -26
-25 -14 -6 -22 -14 -19 -20 3 -5 1 -10 -5 -10 -7 0 -14 9 -17 19 -4 14 -13 19
-34 19 -16 -1 -29 -5 -29 -11 0 -11 -29 -45 -83 -98 -21 -20 -40 -47 -42 -60
-3 -13 -12 -30 -22 -36 -9 -7 -13 -13 -7 -14 5 0 1 -4 -9 -8 -10 -4 -18 -10
-18 -14 1 -4 -11 -19 -26 -33 -22 -21 -24 -24 -8 -19 12 4 16 3 10 -3 -17 -16
-74 -31 -141 -38 -61 -6 -64 -6 -73 19 -5 14 -26 38 -45 54 -20 15 -36 37 -36
48 0 21 107 217 122 223 4 2 8 8 8 13 0 11 178 301 190 309 10 7 70 135 71
151 0 8 4 5 9 -6 7 -17 9 -15 9 12 1 18 17 59 36 92 55 94 70 95 59 3 -5 -47
-10 -61 -25 -65 -11 -3 -19 -15 -20 -29 -1 -12 -2 -40 -3 -60 -2 -25 2 -38 10
-38 36 0 174 197 174 249 0 11 -14 58 -31 103 -55 149 -40 286 37 347 39 30
67 26 103 -14z m529 -202 c17 -13 32 -31 32 -40 0 -9 3 -13 7 -10 3 4 16 -8
28 -26 31 -46 56 -121 69 -209 3 -26 12 -30 26 -13 7 8 19 15 28 15 12 0 14
-14 9 -87 -5 -88 -26 -160 -42 -146 -4 5 -5 3 -2 -4 11 -18 -11 -66 -27 -60
-10 4 -12 0 -9 -14 4 -14 1 -18 -10 -13 -20 7 -15 37 17 104 25 53 35 124 18
134 -12 7 -29 -7 -35 -29 -3 -15 -5 -13 -6 8 0 16 -4 26 -8 24 -5 -3 -7 20 -5
51 2 42 -2 70 -18 104 -20 46 -40 70 -40 49 0 -6 -7 -8 -15 -5 -8 4 -15 14
-15 23 0 14 -21 83 -37 121 -3 8 -7 18 -7 22 -1 3 -4 10 -8 14 -5 4 -8 11 -8
16 0 11 13 4 58 -29z m-863 -42 c-3 -5 -1 -12 5 -16 5 -3 10 -13 10 -21 0 -9
-5 -12 -12 -8 -7 4 -8 3 -4 -5 4 -6 12 -9 17 -6 8 6 11 -2 8 -21 0 -4 5 -10
11 -14 24 -15 19 -73 -8 -110 -14 -19 -30 -36 -34 -38 -4 -2 -8 -13 -8 -23 0
-11 -4 -17 -10 -14 -9 6 -14 -8 -11 -27 0 -5 -4 -8 -10 -8 -5 0 -7 -4 -4 -10
3 -5 1 -10 -5 -10 -6 0 -14 -10 -19 -22 -7 -18 -12 -10 -39 55 -33 78 -39 102
-22 92 5 -3 23 23 39 59 28 62 86 156 97 156 3 0 3 -4 -1 -9z"/>
        <path d="M2121 4014 c-25 -9 -56 -23 -69 -32 -14 -9 -49 -17 -79 -18 -30 -1
-57 -5 -60 -8 -4 -3 -1 -6 6 -6 7 0 10 -4 6 -9 -8 -14 65 -91 103 -107 36 -16
59 -13 149 22 82 32 152 31 222 -1 30 -14 56 -23 59 -21 13 13 -14 63 -58 108
-28 28 -50 47 -50 42 0 -4 -6 1 -14 11 -14 19 -26 23 -116 30 -36 3 -70 0 -99
-11z"/>
        <path d="M2410 3821 c0 -5 -12 -9 -27 -9 -16 0 -56 -5 -91 -11 -34 -7 -67 -9
-72 -6 -6 3 -10 2 -10 -4 0 -6 -11 -5 -29 2 -23 8 -33 8 -45 -2 -23 -19 -20
-27 13 -41 43 -17 104 -77 95 -92 -4 -7 -4 -10 1 -6 11 10 45 -45 61 -99 12
-38 11 -41 -4 -37 -15 5 -15 4 1 -9 11 -10 17 -28 17 -58 0 -32 -3 -40 -10
-29 -8 13 -10 13 -10 -2 0 -9 5 -20 10 -23 7 -4 7 -12 0 -24 -5 -10 -7 -21 -4
-23 2 -3 0 -17 -6 -32 -15 -42 -2 -50 35 -22 18 14 36 22 40 18 3 -4 5 -2 3 4
-4 14 58 84 68 76 4 -4 4 -2 1 4 -8 14 21 56 34 49 5 -4 9 7 9 22 0 16 4 33 9
38 27 31 41 193 19 239 -13 31 -54 60 -70 50 -6 -4 -8 -3 -5 2 3 6 -3 15 -14
22 -10 7 -19 8 -19 3z"/>
        <path d="M1182 3314 c-7 -8 -8 -14 -2 -14 5 0 10 -7 10 -16 0 -8 -4 -13 -9
-10 -4 3 -16 -3 -26 -14 -10 -11 -14 -20 -10 -20 5 0 -6 -11 -25 -25 -18 -13
-38 -22 -44 -18 -6 3 -8 3 -4 -2 8 -8 -74 -65 -93 -65 -13 0 -89 -78 -89 -91
0 -6 -4 -8 -9 -4 -5 3 -12 1 -16 -5 -3 -5 -2 -10 4 -10 7 0 7 -8 1 -25 -14
-37 9 -32 50 10 18 19 38 31 44 28 6 -3 8 -3 4 2 -5 5 7 18 25 31 74 50 162
72 223 55 49 -14 58 -4 39 42 -8 21 -17 63 -19 94 -3 44 -9 59 -23 64 -10 4
-23 1 -31 -7z"/>
        <path d="M3383 2875 c-7 -8 -13 -19 -13 -25 0 -5 -3 -10 -8 -10 -4 0 -13 -14
-21 -31 -14 -31 -77 -99 -93 -99 -5 0 -7 22 -5 49 3 28 3 52 0 54 -2 3 -39
-29 -81 -71 -42 -41 -103 -92 -134 -114 -81 -54 -164 -99 -172 -91 -3 3 -6 2
-6 -4 0 -12 -78 -47 -127 -58 -39 -8 -43 -30 -8 -39 15 -4 25 -13 24 -24 0
-10 -3 -12 -6 -4 -2 6 -9 12 -14 12 -4 0 -6 -7 -3 -15 6 -13 -6 -20 -28 -16
-5 0 -8 -4 -8 -9 0 -6 -11 -10 -25 -10 -15 0 -25 -6 -25 -14 0 -8 -9 -18 -20
-21 -11 -3 -20 -11 -20 -16 0 -6 -4 -8 -9 -5 -5 3 -14 -1 -21 -9 -7 -8 -19
-15 -26 -15 -7 0 -21 -11 -30 -25 -9 -14 -21 -25 -26 -25 -5 0 -28 -20 -50
-45 -22 -24 -45 -42 -49 -39 -5 3 -9 -2 -9 -10 0 -9 -9 -21 -20 -28 -11 -7
-20 -17 -20 -23 0 -6 -19 -30 -42 -55 -24 -25 -41 -46 -40 -48 6 -5 -51 -102
-60 -102 -5 0 -7 -4 -4 -8 4 -7 -11 -49 -34 -94 -5 -9 -10 -36 -11 -60 -1 -23
-5 -47 -9 -53 -4 -5 -4 -21 0 -35 l8 -25 12 33 c6 17 16 32 22 32 5 0 7 4 4 9
-8 12 31 101 44 101 5 0 10 9 10 20 0 11 5 20 10 20 6 0 10 6 10 13 0 25 44
73 63 69 16 -3 17 -1 8 16 -11 21 2 42 28 42 8 0 11 3 8 7 -8 8 13 34 22 28 7
-4 45 30 82 75 11 14 18 18 14 10 -4 -9 2 -6 12 5 63 67 223 125 347 125 94 0
193 -47 261 -123 50 -56 120 -190 129 -247 3 -19 9 -48 13 -65 10 -38 10 -305
0 -365 -12 -73 -37 -150 -48 -150 -6 0 -8 -4 -4 -9 7 -12 -25 -81 -37 -81 -5
0 -6 -5 -3 -10 3 -5 1 -10 -4 -10 -6 0 -11 -6 -11 -13 0 -17 -54 -69 -63 -60
-4 3 -7 -1 -7 -10 0 -21 3 -21 49 3 39 19 141 113 141 129 0 4 6 21 14 37 8
16 28 63 46 104 76 181 112 242 193 322 120 120 237 166 475 188 125 12 220 8
445 -16 32 -4 57 -3 57 2 0 5 -26 24 -57 42 -32 18 -67 38 -78 45 -10 7 -49
30 -85 52 -36 22 -71 45 -78 52 -7 7 -17 13 -21 13 -5 0 -22 14 -39 30 -18 17
-34 30 -37 30 -12 -1 -161 117 -238 189 -199 185 -319 338 -398 506 -21 47
-43 85 -47 85 -4 -1 -13 -7 -19 -15z m-138 -625 c7 0 15 -7 19 -15 3 -8 11
-15 19 -15 16 0 49 -54 39 -64 -4 -4 1 -12 9 -17 9 -5 20 -21 24 -36 11 -44
25 -57 40 -36 7 10 13 23 15 28 4 23 35 45 64 45 32 0 74 -34 56 -45 -6 -4
-10 -10 -10 -16 0 -14 44 -11 64 4 16 12 18 22 11 72 -4 35 -10 53 -15 46 -6
-10 -9 -10 -15 -1 -12 19 3 24 30 10 27 -14 65 -87 65 -124 0 -27 -56 -96 -78
-96 -14 0 -92 78 -92 92 0 5 -7 8 -16 8 -14 0 -16 -9 -11 -59 2 -32 12 -70 21
-83 9 -14 13 -28 9 -31 -3 -4 2 -7 12 -7 11 0 -10 -21 -55 -55 -40 -30 -74
-54 -75 -52 -7 8 -13 127 -6 123 4 -3 8 1 8 9 0 8 -3 12 -7 10 -4 -2 -19 33
-34 78 -15 45 -35 90 -43 100 -10 10 -12 17 -5 17 7 0 12 5 12 10 0 6 -8 10
-18 10 -11 0 -23 13 -31 35 -7 19 -16 33 -21 30 -9 -6 -21 31 -12 40 4 3 8 1
10 -4 2 -6 10 -11 17 -11z"/>
    </g>
</svg>
